<svg width="16" height="17" viewBox="0 0 16 17" fill="none" xmlns="http://www.w3.org/2000/svg">
<path d="M7.06634 11.5663L11.7663 6.86634L10.833 5.93301L7.06634 9.69968L5.16634 7.79967L4.23301 8.73301L7.06634 11.5663ZM7.99967 15.1663C7.07745 15.1663 6.21079 14.9913 5.39967 14.6413C4.58856 14.2913 3.88301 13.8163 3.28301 13.2163C2.68301 12.6163 2.20801 11.9108 1.85801 11.0997C1.50801 10.2886 1.33301 9.4219 1.33301 8.49967C1.33301 7.57745 1.50801 6.71079 1.85801 5.89967C2.20801 5.08856 2.68301 4.38301 3.28301 3.78301C3.88301 3.18301 4.58856 2.70801 5.39967 2.35801C6.21079 2.00801 7.07745 1.83301 7.99967 1.83301C8.9219 1.83301 9.78856 2.00801 10.5997 2.35801C11.4108 2.70801 12.1163 3.18301 12.7163 3.78301C13.3163 4.38301 13.7913 5.08856 14.1413 5.89967C14.4913 6.71079 14.6663 7.57745 14.6663 8.49967C14.6663 9.4219 14.4913 10.2886 14.1413 11.0997C13.7913 11.9108 13.3163 12.6163 12.7163 13.2163C12.1163 13.8163 11.4108 14.2913 10.5997 14.6413C9.78856 14.9913 8.9219 15.1663 7.99967 15.1663ZM7.99967 13.833C9.48856 13.833 10.7497 13.3163 11.783 12.283C12.8163 11.2497 13.333 9.98856 13.333 8.49967C13.333 7.01079 12.8163 5.74967 11.783 4.71634C10.7497 3.68301 9.48856 3.16634 7.99967 3.16634C6.51079 3.16634 5.24967 3.68301 4.21634 4.71634C3.18301 5.74967 2.66634 7.01079 2.66634 8.49967C2.66634 9.98856 3.18301 11.2497 4.21634 12.283C5.24967 13.3163 6.51079 13.833 7.99967 13.833Z" fill="#01000C"/>
</svg>
