<svg width="30" height="30" viewBox="0 0 30 30" fill="none" xmlns="http://www.w3.org/2000/svg">
<path d="M15 25.5437L13.1875 23.9931C11.0833 22.1842 9.34375 20.6237 7.96875 19.3117C6.59375 17.9997 5.5 16.8219 4.6875 15.7783C3.875 14.7346 3.30729 13.7755 2.98438 12.9008C2.66146 12.0262 2.5 11.1316 2.5 10.2172C2.5 8.3486 3.15625 6.78812 4.46875 5.53576C5.78125 4.28341 7.41667 3.65723 9.375 3.65723C10.4583 3.65723 11.4896 3.87589 12.4688 4.31322C13.4479 4.75056 14.2917 5.3668 15 6.16194C15.7083 5.3668 16.5521 4.75056 17.5312 4.31322C18.5104 3.87589 19.5417 3.65723 20.625 3.65723C22.5833 3.65723 24.2188 4.28341 25.5312 5.53576C26.8438 6.78812 27.5 8.3486 27.5 10.2172C27.5 11.1316 27.3385 12.0262 27.0156 12.9008C26.6927 13.7755 26.125 14.7346 25.3125 15.7783C24.5 16.8219 23.4062 17.9997 22.0312 19.3117C20.6562 20.6237 18.9167 22.1842 16.8125 23.9931L15 25.5437ZM15 22.3233C17 20.6138 18.6458 19.1477 19.9375 17.9252C21.2292 16.7026 22.25 15.6391 23 14.7346C23.75 13.8302 24.2708 13.0251 24.5625 12.3194C24.8542 11.6137 25 10.913 25 10.2172C25 9.02448 24.5833 8.03054 23.75 7.23539C22.9167 6.44025 21.875 6.04267 20.625 6.04267C19.6458 6.04267 18.7396 6.30606 17.9062 6.83285C17.0729 7.35964 16.5 8.03054 16.1875 8.84557H13.8125C13.5 8.03054 12.9271 7.35964 12.0938 6.83285C11.2604 6.30606 10.3542 6.04267 9.375 6.04267C8.125 6.04267 7.08333 6.44025 6.25 7.23539C5.41667 8.03054 5 9.02448 5 10.2172C5 10.913 5.14583 11.6137 5.4375 12.3194C5.72917 13.0251 6.25 13.8302 7 14.7346C7.75 15.6391 8.77083 16.7026 10.0625 17.9252C11.3542 19.1477 13 20.6138 15 22.3233Z" fill="white"/>
</svg>
