<svg width="23" height="23" viewBox="0 0 23 23" fill="none" xmlns="http://www.w3.org/2000/svg">
<path d="M2.5 22.5C1.8125 22.5 1.22396 22.2552 0.734375 21.7656C0.244792 21.276 0 20.6875 0 20V2.5C0 1.8125 0.244792 1.22396 0.734375 0.734375C1.22396 0.244792 1.8125 0 2.5 0H20C20.6875 0 21.276 0.244792 21.7656 0.734375C22.2552 1.22396 22.5 1.8125 22.5 2.5V20C22.5 20.6875 22.2552 21.276 21.7656 21.7656C21.276 22.2552 20.6875 22.5 20 22.5H2.5ZM2.5 20H20V5H2.5V20ZM11.25 17.5C9.54167 17.5 8.01562 17.0365 6.67188 16.1094C5.32812 15.1823 4.35417 13.9792 3.75 12.5C4.35417 11.0208 5.32812 9.81771 6.67188 8.89062C8.01562 7.96354 9.54167 7.5 11.25 7.5C12.9583 7.5 14.4844 7.96354 15.8281 8.89062C17.1719 9.81771 18.1458 11.0208 18.75 12.5C18.1458 13.9792 17.1719 15.1823 15.8281 16.1094C14.4844 17.0365 12.9583 17.5 11.25 17.5ZM11.25 15.625C12.4167 15.625 13.4792 15.349 14.4375 14.7969C15.3958 14.2448 16.1458 13.4792 16.6875 12.5C16.1458 11.5208 15.3958 10.7552 14.4375 10.2031C13.4792 9.65104 12.4167 9.375 11.25 9.375C10.0833 9.375 9.02083 9.65104 8.0625 10.2031C7.10417 10.7552 6.35417 11.5208 5.8125 12.5C6.35417 13.4792 7.10417 14.2448 8.0625 14.7969C9.02083 15.349 10.0833 15.625 11.25 15.625ZM11.25 14.375C11.7708 14.375 12.2135 14.1927 12.5781 13.8281C12.9427 13.4635 13.125 13.0208 13.125 12.5C13.125 11.9792 12.9427 11.5365 12.5781 11.1719C12.2135 10.8073 11.7708 10.625 11.25 10.625C10.7292 10.625 10.2865 10.8073 9.92188 11.1719C9.55729 11.5365 9.375 11.9792 9.375 12.5C9.375 13.0208 9.55729 13.4635 9.92188 13.8281C10.2865 14.1927 10.7292 14.375 11.25 14.375Z" fill="#01000C"/>
</svg>
