<svg width="24" height="24" viewBox="0 0 24 24" fill="none" xmlns="http://www.w3.org/2000/svg">
<path d="M12.3547 20.5709L10.9514 19.3328C9.32241 17.8884 7.97563 16.6423 6.91112 15.5947C5.8466 14.5471 4.99983 13.6066 4.37079 12.7733C3.74176 11.94 3.30225 11.1741 3.05225 10.4757C2.80225 9.77727 2.67725 9.06298 2.67725 8.33282C2.67725 6.84076 3.18531 5.59473 4.20144 4.59473C5.21757 3.59473 6.4837 3.09473 7.99983 3.09473C8.83854 3.09473 9.63692 3.26933 10.395 3.61854C11.1531 3.96774 11.8063 4.45981 12.3547 5.09473C12.9031 4.45981 13.5563 3.96774 14.3143 3.61854C15.0724 3.26933 15.8708 3.09473 16.7095 3.09473C18.2256 3.09473 19.4918 3.59473 20.5079 4.59473C21.524 5.59473 22.0321 6.84076 22.0321 8.33282C22.0321 9.06298 21.9071 9.77727 21.6571 10.4757C21.4071 11.1741 20.9676 11.94 20.3385 12.7733C19.7095 13.6066 18.8627 14.5471 17.7982 15.5947C16.7337 16.6423 15.3869 17.8884 13.7579 19.3328L12.3547 20.5709ZM12.3547 17.9995C13.9031 16.6344 15.1772 15.4638 16.1772 14.4876C17.1772 13.5114 17.9676 12.6622 18.5482 11.94C19.1289 11.2177 19.5321 10.5749 19.7579 10.0114C19.9837 9.4479 20.0966 8.88838 20.0966 8.33282C20.0966 7.38044 19.774 6.58679 19.1289 5.95187C18.4837 5.31695 17.6772 4.99949 16.7095 4.99949C15.9514 4.99949 15.2498 5.20981 14.6047 5.63044C13.9595 6.05108 13.516 6.58679 13.274 7.23758H11.4353C11.1934 6.58679 10.7498 6.05108 10.1047 5.63044C9.4595 5.20981 8.75789 4.99949 7.99983 4.99949C7.03209 4.99949 6.22563 5.31695 5.58047 5.95187C4.93531 6.58679 4.61273 7.38044 4.61273 8.33282C4.61273 8.88838 4.72563 9.4479 4.95144 10.0114C5.17725 10.5749 5.58047 11.2177 6.16112 11.94C6.74176 12.6622 7.53209 13.5114 8.53209 14.4876C9.53209 15.4638 10.8063 16.6344 12.3547 17.9995Z" fill="#01000C"/>
</svg>
