<svg id="emMknX71BKO1" xmlns="http://www.w3.org/2000/svg" xmlns:xlink="http://www.w3.org/1999/xlink" viewBox="0 0 24 24" shape-rendering="geometricPrecision" text-rendering="geometricPrecision" project-id="4b2a696d321a4d40b6871c193d7f2af0" export-id="d56278e6cdf946c7ad7b3be6eeae4be7" cached="false"><path d="M12.3547,20.5709l-1.4033-1.2381c-1.62899-1.4444-2.97577-2.6905-4.04028-3.7381s-1.91129-1.9881-2.54033-2.8214-1.06854-1.5992-1.31854-2.2976-.375-1.41272-.375-2.14288c0-1.49206.50806-2.73809,1.52419-3.73809s2.28226-1.5,3.79839-1.5c.83871,0,1.63709.1746,2.39517.52381s1.4113.84127,1.9597,1.47619c.5484-.63492,1.2016-1.12699,1.9596-1.47619.7581-.34921,1.5565-.52381,2.3952-.52381c1.5161,0,2.7823.5,3.7984,1.5s1.5242,2.24603,1.5242,3.73809c0,.73016-.125,1.44445-.375,2.14288s-.6895,1.4643-1.3186,2.2976-1.4758,1.7738-2.5403,2.8214-2.4113,2.2937-4.0403,3.7381l-1.4032,1.2381Z" fill="#01000c" stroke-width="0" stroke-linejoin="round"/></svg>
