<?xml version="1.0" encoding="UTF-8" standalone="no" ?>
<!DOCTYPE svg PUBLIC "-//W3C//DTD SVG 1.1//EN" "http://www.w3.org/Graphics/SVG/1.1/DTD/svg11.dtd">
<svg xmlns="http://www.w3.org/2000/svg" xmlns:xlink="http://www.w3.org/1999/xlink" version="1.1" width="1080" height="1080" viewBox="0 0 1080 1080" xml:space="preserve">
<desc>Created with Fabric.js 5.2.4</desc>
<defs>
</defs>
<g transform="matrix(1 0 0 1 540 540)" id="d6044471-3ba1-4ef3-8a06-e941801b1b38"  >
<rect style="stroke: none; stroke-width: 1; stroke-dasharray: none; stroke-linecap: butt; stroke-dashoffset: 0; stroke-linejoin: miter; stroke-miterlimit: 4; fill: rgb(255,255,255); fill-rule: nonzero; opacity: 1; visibility: hidden;" vector-effect="non-scaling-stroke"  x="-540" y="-540" rx="0" ry="0" width="1080" height="1080" />
</g>
<g transform="matrix(1 0 0 1 540 540)" id="645d7688-10b6-44e5-9c27-0a9beaea3f3e"  >
</g>
<g transform="matrix(1 0 0 1 540 540)" id="deb48bb0-48ca-47af-a818-5df5f0aa4eb0"  >
<path style="stroke: rgb(0,0,0); stroke-width: 0; stroke-dasharray: none; stroke-linecap: butt; stroke-dashoffset: 0; stroke-linejoin: miter; stroke-miterlimit: 4; fill: rgb(1,0,12); fill-rule: nonzero; opacity: 1;" vector-effect="non-scaling-stroke"  transform=" translate(-12.35, -11.83)" d="M 12.3547 20.5709 L 10.9514 19.3328 C 9.32241 17.8884 7.97563 16.6423 6.91112 15.5947 C 5.8466 14.5471 4.99983 13.6066 4.37079 12.7733 C 3.74176 11.94 3.30225 11.1741 3.05225 10.4757 C 2.80225 9.77727 2.67725 9.06298 2.67725 8.33282 C 2.67725 6.84076 3.18531 5.59473 4.20144 4.59473 C 5.21757 3.59473 6.4837 3.09473 7.99983 3.09473 C 8.83854 3.09473 9.63692 3.26933 10.395 3.61854 C 11.1531 3.96774 11.8063 4.45981 12.3547 5.09473 C 12.9031 4.45981 13.5563 3.96774 14.3143 3.61854 C 15.0724 3.26933 15.8708 3.09473 16.7095 3.09473 C 18.2256 3.09473 19.4918 3.59473 20.5079 4.59473 C 21.524 5.59473 22.0321 6.84076 22.0321 8.33282 C 22.0321 9.06298 21.9071 9.77727 21.6571 10.4757 C 21.4071 11.1741 20.9676 11.94 20.3385 12.7733 C 19.7095 13.6066 18.8627 14.5471 17.7982 15.5947 C 16.7337 16.6423 15.3869 17.8884 13.7579 19.3328 L 12.3547 20.5709 Z M 12.3547 17.9995 C 13.9031 16.6344 15.1772 15.4638 16.1772 14.4876 C 17.1772 13.5114 17.9676 12.6622 18.5482 11.94 C 19.1289 11.2177 19.5321 10.5749 19.7579 10.0114 C 19.9837 9.4479 20.0966 8.88838 20.0966 8.33282 C 20.0966 7.38044 19.774 6.58679 19.1289 5.95187 C 18.4837 5.31695 17.6772 4.99949 16.7095 4.99949 C 15.9514 4.99949 15.2498 5.20981 14.6047 5.63044 C 13.9595 6.05108 13.516 6.58679 13.274 7.23758 L 11.4353 7.23758 C 11.1934 6.58679 10.7498 6.05108 10.1047 5.63044 C 9.4595 5.20981 8.75789 4.99949 7.99983 4.99949 C 7.03209 4.99949 6.22563 5.31695 5.58047 5.95187 C 4.93531 6.58679 4.61273 7.38044 4.61273 8.33282 C 4.61273 8.88838 4.72563 9.4479 4.95144 10.0114 C 5.17725 10.5749 5.58047 11.2177 6.16112 11.94 C 6.74176 12.6622 7.53209 13.5114 8.53209 14.4876 C 9.53209 15.4638 10.8063 16.6344 12.3547 17.9995 Z" stroke-linecap="round" />
</g>
<g transform="matrix(0.1 0.1 -0.14 0.14 542.11 538.73)" id="2e1ec3f5-5b68-42ba-a8d4-0919152d0333"  >
<circle style="stroke: rgb(0,0,0); stroke-width: 0; stroke-dasharray: none; stroke-linecap: butt; stroke-dashoffset: 0; stroke-linejoin: miter; stroke-miterlimit: 4; fill: rgb(0,0,0); fill-rule: nonzero; opacity: 1;" vector-effect="non-scaling-stroke"  cx="0" cy="0" r="35" />
</g>
<g transform="matrix(0.1 -0.1 0.17 0.17 538.34 538.41)" id="2e1ec3f5-5b68-42ba-a8d4-0919152d0333"  >
<circle style="stroke: rgb(0,0,0); stroke-width: 0; stroke-dasharray: none; stroke-linecap: butt; stroke-dashoffset: 0; stroke-linejoin: miter; stroke-miterlimit: 4; fill: rgb(0,0,0); fill-rule: nonzero; opacity: 1;" vector-effect="non-scaling-stroke"  cx="0" cy="0" r="35" />
</g>
<g transform="matrix(0.08 -0.01 0.02 0.15 539.3 541.72)" id="2e1ec3f5-5b68-42ba-a8d4-0919152d0333"  >
<circle style="stroke: rgb(0,0,0); stroke-width: 0; stroke-dasharray: none; stroke-linecap: butt; stroke-dashoffset: 0; stroke-linejoin: miter; stroke-miterlimit: 4; fill: rgb(0,0,0); fill-rule: nonzero; opacity: 1;" vector-effect="non-scaling-stroke"  cx="0" cy="0" r="35" />
</g>
</svg>